<?xml version="1.0" encoding="utf-8"?>
<!-- Generator: Adobe Illustrator 25.2.0, SVG Export Plug-In . SVG Version: 6.00 Build 0)  -->
<svg version="1.1" id="Layer_1" xmlns="http://www.w3.org/2000/svg" xmlns:xlink="http://www.w3.org/1999/xlink" x="0px" y="0px"
	 viewBox="0 0 967.45 825.25" style="enable-background:new 0 0 967.45 825.25;" xml:space="preserve">
<style type="text/css">
	.st0{display:none;}
	.st1{display:inline;}
	.st2{fill:#10B0BB;}
	.st3{fill:#3E4040;}
	.st4{fill:#313030;}
	.st5{fill:#74160A;}
	.st6{fill:#A8A7A1;}
	.st7{fill:#E95433;}
	.st8{fill:#1AEBF2;}
	.st9{fill:#878888;}
	.st10{fill:#FFFCE6;}
	.st11{fill:#D0CEC0;}
	.st12{fill:#686A6A;}
	.st13{fill:#C4C4C3;}
	.st14{display:inline;fill:#1D1D1B;}
	.st15{display:inline;fill:#1BD9DB;}
	.st16{display:inline;fill:#1DACB0;}
	.st17{display:inline;fill:#179AA1;}
	.st18{display:inline;fill:#0A6469;}
	.st19{display:inline;fill:#14EBF7;}
	.st20{fill:#222222;}
	.st21{display:inline;fill:#15C1D0;}
	.st22{display:inline;fill:#FFFFFF;}
	.st23{fill:#A0A0A0;}
	.st24{fill:#4C4C49;}
	.st25{display:inline;fill:#10B0BB;}
	.st26{display:inline;fill:#0C2518;}
	.st27{fill:#6A6B6A;}
	.st28{fill:#525352;}
	.st29{fill:#767776;}
	.st30{display:inline;fill:#74160A;}
	.st31{fill:#7C140A;}
	.st32{fill:#626362;}
	.st33{fill:#0C2518;}
	.st34{display:inline;fill:#C4C4C3;}
	.st35{fill:none;}
	.st36{fill:#1BD9DB;}
	.st37{display:inline;fill:#1AEBF2;}
	.st38{fill:#179AA1;}
	.st39{fill:#543A22;}
	.st40{fill:#6E4C30;}
	.st41{fill:#1D1D1B;}
	.st42{fill:#7E9E64;}
	.st43{fill:#7A8F6A;}
	.st44{fill:#7E996B;}
	.st45{fill:#9CBE85;}
	.st46{fill:#A9C991;}
	.st47{fill:#ADCF95;}
	.st48{fill:#797A79;}
	.st49{fill:#AEAEAE;}
	.st50{fill:#FFFFFF;}
</style>
<g>
	<g class="st0">
		<g class="st1">
			<path class="st2" d="M276.5,136.29c0,0.93-0.27,1.92-3.54,1.92h-3.75c-3.27,0-3.36-1.11-3.36-2.04l-2.55-17.96
				c0-0.93,2.65-1.68,5.91-1.68h3.75c3.27,0,5.91,0.75,5.91,1.68L276.5,136.29z"/>
			<g>
				<g>
					<g>
						<path class="st3" d="M289.25,114.48c0,0-6.35,1.7-8.9,1.33c-2.55-0.36-4.18-4.19-9.34-3.85v11.46c0,0,6.39,0.42,10.48-2.07
							c4.09-2.48,6.26-4.33,8.11-4.65L289.25,114.48z"/>
						<path class="st2" d="M289.25,114.48c0,0-6.35,1.7-8.9,1.33c-2.55-0.36-4.18-4.19-9.34-3.85v11.46c0,0,6.39,0.42,10.48-2.07
							c4.09-2.48,6.26-4.33,8.11-4.65L289.25,114.48z"/>
					</g>
					<g>
						<path class="st4" d="M297.52,113.75c0.11,0.39-0.21,0.82-0.71,0.97l-6.5,1.89c-0.5,0.15-1.01-0.05-1.12-0.44l-0.23-0.8
							c-0.11-0.39,0.21-0.82,0.71-0.97l6.5-1.88c0.51-0.15,1.01,0.05,1.12,0.44L297.52,113.75z"/>
						
							<rect x="289.06" y="113.81" transform="matrix(0.9604 -0.2785 0.2785 0.9604 -20.7576 85.1805)" class="st4" width="0.81" height="3.69"/>
						
							<rect x="296.61" y="112.04" transform="matrix(0.9605 -0.2784 0.2784 0.9605 -19.844 87.1881)" class="st4" width="0.81" height="2.83"/>
					</g>
				</g>
				<g>
					<g>
						<path class="st3" d="M252.6,114.48c0,0,6.35,1.7,8.9,1.33c2.55-0.36,4.18-4.19,9.34-3.85v11.46c0,0-6.39,0.42-10.48-2.07
							c-4.09-2.48-6.26-4.33-8.11-4.65L252.6,114.48z"/>
						<path class="st2" d="M252.6,114.48c0,0,6.35,1.7,8.9,1.33c2.55-0.36,4.18-4.19,9.34-3.85v11.46c0,0-6.39,0.42-10.48-2.07
							c-4.09-2.48-6.26-4.33-8.11-4.65L252.6,114.48z"/>
					</g>
					<g>
						<path class="st4" d="M244.33,113.75c-0.11,0.39,0.21,0.82,0.71,0.97l6.5,1.89c0.5,0.15,1.01-0.05,1.12-0.44l0.23-0.8
							c0.11-0.39-0.21-0.82-0.71-0.97l-6.5-1.88c-0.51-0.15-1.01,0.05-1.12,0.44L244.33,113.75z"/>
						
							<rect x="250.55" y="115.25" transform="matrix(0.2785 -0.9604 0.9604 0.2785 71.0242 325.8585)" class="st4" width="3.69" height="0.81"/>
						
							<rect x="243.43" y="113.05" transform="matrix(0.2785 -0.9605 0.9605 0.2785 67.7001 317.0195)" class="st4" width="2.83" height="0.81"/>
					</g>
				</g>
			</g>
			<g>
				<path class="st2" d="M274.86,150.3c0,1.56-1.33,2.83-2.98,2.83h-1.89c-1.65,0-2.98-1.27-2.98-2.83v-30.94
					c0-1.56,1.33-2.83,2.98-2.83h1.89c1.65,0,2.98,1.27,2.98,2.83V150.3z"/>
			</g>
			<g>
				<path class="st5" d="M274.86,140.65v-21.29c0-1.56-1.33-2.83-2.98-2.83h-1.89c-1.65,0-2.98,1.27-2.98,2.83v21.28
					C268.38,141.63,272.84,142.04,274.86,140.65z"/>
			</g>
			<path class="st2" d="M278.99,139.11v-19.75c0-1.56-2.72-2.83-6.08-2.83h-3.86c-3.36,0-6.08,1.27-6.08,2.83v19.75H278.99z"/>
			<g>
				<g>
					<path class="st6" d="M263.18,119.63c0,1.58-1.28,2.87-2.87,2.87s-2.87-1.28-2.87-2.87c0-1.58,1.28-2.87,2.87-2.87
						S263.18,118.04,263.18,119.63z"/>
					
						<ellipse transform="matrix(0.1602 -0.9871 0.9871 0.1602 100.3187 357.601)" class="st7" cx="260.31" cy="119.85" rx="2.65" ry="2.65"/>
					<path class="st7" d="M261.83,122.02c0.69-0.48,1.13-1.27,1.13-2.17c0-1.11-0.68-2.05-1.65-2.45c-0.34,0.69-0.7,1.76-1.05,2.45
						C260.84,120.66,261.33,121.15,261.83,122.02z"/>
				</g>
				<g>
					<path class="st6" d="M284.72,119.63c0,1.58-1.28,2.87-2.87,2.87c-1.58,0-2.87-1.28-2.87-2.87c0-1.58,1.28-2.87,2.87-2.87
						C283.43,116.76,284.72,118.04,284.72,119.63z"/>
					<path class="st7" d="M284.5,119.85c0,1.46-1.18,2.65-2.65,2.65c-1.46,0-2.65-1.18-2.65-2.65c0-1.46,1.19-2.65,2.65-2.65
						C283.31,117.2,284.5,118.38,284.5,119.85z"/>
					<path class="st7" d="M283.36,122.02c0.69-0.48,1.13-1.27,1.13-2.17c0-1.11-0.68-2.05-1.65-2.45c-0.34,0.69-0.7,1.76-1.05,2.45
						C282.38,120.66,282.86,121.15,283.36,122.02z"/>
				</g>
			</g>
			<path class="st8" d="M274.86,138.19c0,1-1.33,1.82-2.98,1.82h-1.89c-1.65,0-2.98-0.81-2.98-1.82v-19.85c0-1,1.33-1.82,2.98-1.82
				h1.89c1.65,0,2.98,0.81,2.98,1.82V138.19z"/>
			
				<ellipse transform="matrix(0.1602 -0.9871 0.9871 0.1602 111.4876 366.4223)" class="st9" cx="271.08" cy="117.69" rx="5.73" ry="5.73"/>
			
				<ellipse transform="matrix(0.1602 -0.9871 0.9871 0.1602 111.4876 366.4223)" class="st9" cx="271.08" cy="117.69" rx="5.73" ry="5.73"/>
			<path class="st10" d="M275.99,117.69c0,2.71-2.2,4.91-4.91,4.91c-2.71,0-4.91-2.2-4.91-4.91c0-2.71,2.2-4.91,4.91-4.91
				C273.79,112.78,275.99,114.98,275.99,117.69z"/>
			<path class="st11" d="M271.46,117.78c-1.82-0.06-3.51,0.45-5.12,1.19c0.56,2.09,2.47,3.64,4.74,3.64c2.34,0,4.29-1.63,4.79-3.82
				C274.43,118.29,272.97,117.83,271.46,117.78z"/>
			<g>
				<ellipse class="st9" cx="296.23" cy="95.66" rx="4.73" ry="4.62"/>
				<path class="st12" d="M299.63,98.87c0.82-0.83,1.32-1.96,1.32-3.2c0-1.46-0.69-2.75-1.77-3.6c-0.68,0.63-2.83,3.28-3.5,4.02
					C296.45,96.62,298.98,98.39,299.63,98.87z"/>
				<path class="st13" d="M284.72,116.82c-0.13,0-0.26-0.09-0.29-0.23c-0.03-0.11-0.71-2.73-0.71-3.64c0-0.91,0.64-1.57,0.78-1.71
					l11.19-15.35c0.1-0.13,0.29-0.16,0.42-0.07c0.13,0.1,0.16,0.29,0.07,0.42l-11.21,15.38c-0.01,0.02-0.03,0.03-0.04,0.05
					c-0.01,0-0.6,0.55-0.6,1.28c0,0.83,0.69,3.46,0.69,3.49c0.04,0.16-0.05,0.33-0.22,0.37
					C284.77,116.82,284.74,116.82,284.72,116.82z"/>
			</g>
			<g>
				<ellipse class="st9" cx="246.85" cy="95.66" rx="4.73" ry="4.62"/>
				<path class="st12" d="M243.45,98.87c-0.82-0.83-1.32-1.96-1.32-3.2c0-1.46,0.69-2.75,1.77-3.6c0.68,0.63,2.83,3.28,3.5,4.02
					C246.63,96.62,244.1,98.39,243.45,98.87z"/>
				<path class="st13" d="M258.36,116.82c0.13,0,0.26-0.09,0.29-0.23c0.03-0.11,0.71-2.73,0.71-3.64c0-0.91-0.64-1.57-0.78-1.71
					L247.4,95.9c-0.1-0.13-0.29-0.16-0.42-0.07c-0.13,0.1-0.16,0.29-0.07,0.42l11.21,15.38c0.01,0.02,0.03,0.03,0.04,0.05
					c0.01,0,0.6,0.55,0.6,1.28c0,0.83-0.69,3.46-0.69,3.49c-0.04,0.16,0.05,0.33,0.22,0.37
					C258.31,116.82,258.33,116.82,258.36,116.82z"/>
			</g>
		</g>
		<path class="st14" d="M254.57,172.29c1.47,0.65,3.12,0.45,4.89,0.42c2.72-0.05,5.47,0.02,8.19,0.03
			c5.69,0.02,11.39-0.03,17.08,0.02c11.24,0.09,8.38-17.6,7.1-25.41c-0.47-2.83-0.98-5.65-1.44-8.49c-0.71-4.42-3.94-7.51-6.98-9.8
			c-1.65-1.24-3.4-2.32-5.32-2.8c-3.71-0.93-8.65-1.54-13.21,0c-1.89,0.64-3.67,1.55-5.32,2.8c-3.04,2.29-6.27,5.39-6.98,9.8
			c-1.44,8.94-5.08,24.9,0,31.75C253.19,171.45,253.86,171.97,254.57,172.29z"/>
		<path class="st15" d="M255.34,172.29c1.4,0.64,2.98,0.45,4.67,0.41c2.6-0.05,5.22,0.02,7.82,0.03c5.44,0.02,10.87-0.02,16.31,0.02
			c10.74,0.09,8.01-17.38,6.78-25.08c-0.45-2.8-0.94-5.58-1.37-8.38c-0.68-4.36-3.77-7.42-6.67-9.68c-1.58-1.23-3.25-2.29-5.08-2.76
			c-3.54-0.92-8.26-1.52-12.62,0c-1.8,0.63-3.5,1.54-5.08,2.76c-2.9,2.26-5.99,5.32-6.67,9.68c-1.38,8.83-4.85,24.58,0,31.35
			C254.01,171.47,254.65,171.98,255.34,172.29z"/>
		<path class="st16" d="M250.92,160.06c0.03,4.23,0.67,8.04,2.5,10.59c0.59,0.83,1.23,1.34,1.92,1.65c1.4,0.64,2.98,0.45,4.67,0.41
			c2.6-0.05,5.22,0.02,7.82,0.03c5.44,0.02,10.87-0.02,16.31,0.02c6.38,0.05,8.01-6.09,8.02-12.7H250.92z"/>
		<path class="st17" d="M261.34,172.53c0.88,0.32,1.87,0.22,2.94,0.21c1.64-0.03,3.29,0.01,4.92,0.01
			c3.42,0.01,6.85-0.01,10.27,0.01c6.76,0.04,5.04-8.65,4.27-12.49c-0.28-1.39-0.59-2.78-0.87-4.17c-0.43-2.17-2.37-3.69-4.2-4.82
			c-0.99-0.61-2.04-1.14-3.2-1.37c-2.23-0.46-5.2-0.75-7.94,0c-1.13,0.31-2.21,0.76-3.2,1.37c-1.83,1.13-3.77,2.65-4.2,4.82
			c-0.87,4.39-3.06,12.24,0,15.61C260.51,172.12,260.91,172.37,261.34,172.53z"/>
		<path class="st18" d="M280.83,167.94c0,0-0.2-6.77-1.65-12.8c-1.07-4.42-5-5.28-7.02-5.42l0-0.01c0,0-0.23-0.02-0.61-0.02
			c-0.38,0-0.61,0.02-0.61,0.02l0,0.01c-2.02,0.14-5.96,0.99-7.02,5.42c-1.46,6.03-1.65,12.8-1.65,12.8s-0.19,1.24,2.06,1.27
			c1.07,0.01,4.22,0.01,7.23,0.01c3,0,6.15,0,7.23-0.01C281.02,169.18,280.83,167.94,280.83,167.94z"/>
		<path class="st19" d="M278.58,150.69c0.1-0.09,0.16-0.21,0.17-0.33c-0.44-0.98-1.04-2.05-1.91-3.19c0,0-1.17-1.31-0.87-4.73
			c0.3-3.42,0-13.41,0-13.41s0.29-2.78-3.85-3.08v-0.01H271c-4.34,0.23-4.04,3.1-4.04,3.1s-0.3,9.99,0,13.41
			c0.3,3.42-0.87,4.73-0.87,4.73c-0.77,1.01-1.33,1.97-1.76,2.85c-0.01,0.07-0.01,0.13-0.01,0.2c0.42,0.7,2.41-0.38,2.94-0.55
			c0.59-0.19,1.15-0.31,1.72-0.4c0.15-0.04,0.3-0.07,0.44-0.09c0.09-0.02,0.17-0.04,0.26-0.06c0.04-0.01,0.06,0,0.09,0
			c0.74-0.1,1.23-0.08,1.23-0.08l0.3,0.01c0.07-0.01,0.13-0.01,0.2-0.01c0.04,0,0.06,0.01,0.08,0.02l0.55,0.01v-0.01
			c0.17,0.01,0.46,0.03,0.82,0.09c0.94,0.08,1.88,0.28,2.78,0.55C276.38,149.89,277.69,150.75,278.58,150.69z"/>
		<g class="st1">
			
				<rect x="264.4" y="163.19" transform="matrix(4.547023e-03 -1 1 4.547023e-03 102.0991 431.1386)" class="st6" width="6.4" height="2.19"/>
			
				<rect x="272.28" y="163.23" transform="matrix(4.544150e-03 -1 1 4.544150e-03 109.9034 439.0491)" class="st6" width="6.4" height="2.19"/>
			<path class="st20" d="M267.62,161.09l-0.09,19.01c-0.01,1.76,1.32,3.19,2.98,3.2l1.9,0.01c1.65,0.01,3-1.41,3-3.17l0.09-19.01
				L267.62,161.09z"/>
		</g>
		<path class="st19" d="M264.4,168.45c0.87-0.6,1.53-1.45,2.2-2.26c1.23-1.47,2.47-2.64,4.51-2.74c2.34-0.11,4.37,1.11,6.01,2.69
			c0.75,0.72,1.47,1.61,2.38,2.14c0.45,0.27,0.88,0.37,1.31,0.37c0.03-0.15,0.02-0.26,0.02-0.26s-0.2-6.95-1.65-13.13
			c-1.07-4.53-5-5.41-7.02-5.55l0-0.01c0,0-0.23-0.02-0.61-0.02c-0.38,0-0.61,0.02-0.61,0.02l0,0.01c-2.02,0.14-5.96,1.02-7.02,5.55
			c-1.46,6.18-1.65,13.13-1.65,13.13s0,0.03,0,0.07C262.84,168.85,263.74,168.9,264.4,168.45z"/>
		<path class="st21" d="M280.83,168.4c0,0-0.2-6.95-1.65-13.13c-0.97-4.13-4.32-5.22-6.44-5.5c4.68,2.6,5.17,12.42,5.49,17.48
			c0.39,0.39,0.81,0.75,1.27,1.03c0.45,0.27,0.88,0.37,1.31,0.37C280.84,168.5,280.83,168.4,280.83,168.4z"/>
		<path class="st15" d="M275.29,145.09c0,1.58-1.28,2.85-2.85,2.85h-1.79c-1.58,0-2.85-1.28-2.85-2.85v-12.41
			c0-1.58,1.28-2.85,2.85-2.85h1.79c1.58,0,2.85,1.28,2.85,2.85V145.09z"/>
		<path class="st22" d="M271.51,150.43c0,0-4.64,0.31-6.51,4.56c0,0-0.47,0.81-1.21,4.46l-0.83,8.04c0,0,0.7-9.08,2.18-11.7
			C266.61,153.18,267.48,151.84,271.51,150.43z"/>
		<path class="st22" d="M264.18,128.41c0,0-7.87,3.34-9.99,10.84c0,0-2.47,11.05-2.75,20.12c0,0-0.2,5.96,1.74,8.91
			c0,0-1.55-4.61-1.08-9.18c0.48-4.57,1.95-17.8,3.09-20.65C255.2,138.45,256.66,132.62,264.18,128.41z"/>
		<path class="st22" d="M278.34,128.27c0,0,7.87,3.34,9.99,10.84c0,0,2.47,11.05,2.75,20.12c0,0,0.2,5.96-1.74,8.91
			c0,0,1.55-4.61,1.08-9.18c-0.48-4.57-1.95-17.8-3.09-20.65C287.33,138.31,285.87,132.48,278.34,128.27z"/>
	</g>
	<g class="st0">
		<path class="st17" d="M324.83,112.48v3.82c0,0,16.72,5.16,18.34,22.28l8.7-0.03c0,0-5.27-4.51-6.68-9.35
			c-1.41-4.84-2.8-11.39-7.64-14.05C332.71,112.48,324.83,112.48,324.83,112.48z"/>
		<g class="st1">
			<rect x="417.61" y="106.13" class="st7" width="7.5" height="7.66"/>
			<rect x="417.61" y="106.13" class="st6" width="2.99" height="7.66"/>
			<rect x="417.61" y="106.13" class="st7" width="7.5" height="1.95"/>
		</g>
		<g class="st1">
			<g>
				<g>
					<rect x="324.83" y="121.2" class="st23" width="0.13" height="20.74"/>
					<rect x="327.48" y="121.2" class="st23" width="0.13" height="20.74"/>
				</g>
				<g>
					<rect x="315.85" y="130.18" class="st23" width="20.74" height="0.13"/>
					<rect x="315.85" y="132.83" class="st23" width="20.74" height="0.13"/>
				</g>
				<g>
					
						<rect x="314.53" y="131.38" transform="matrix(0.0936 -0.9956 0.9956 0.0936 163.6293 442.6234)" class="st23" width="20.74" height="0.13"/>
					
						<rect x="317.17" y="131.63" transform="matrix(0.0937 -0.9956 0.9956 0.0937 165.736 445.4563)" class="st23" width="20.75" height="0.13"/>
				</g>
				<g>
					
						<rect x="326.28" y="119.88" transform="matrix(0.0935 -0.9956 0.9956 0.0935 166.1527 442.9892)" class="st23" width="0.13" height="20.74"/>
					
						<rect x="326.03" y="122.52" transform="matrix(0.0935 -0.9956 0.9956 0.0935 163.2994 445.1357)" class="st23" width="0.13" height="20.75"/>
				</g>
				<g>
					<polygon class="st23" points="318,138.02 317.9,137.92 332.57,123.25 332.67,123.35 					"/>
					
						<rect x="316.79" y="132.44" transform="matrix(0.707 -0.7072 0.7072 0.707 2.1395 270.1819)" class="st23" width="20.74" height="0.13"/>
				</g>
				<g>
					
						<rect x="315.05" y="130.45" transform="matrix(0.7958 -0.6056 0.6056 0.7958 -12.5835 223.7161)" class="st23" width="20.75" height="0.13"/>
					
						<rect x="316.65" y="132.56" transform="matrix(0.7957 -0.6056 0.6056 0.7957 -13.5254 225.1502)" class="st23" width="20.74" height="0.13"/>
				</g>
				<g>
					<polygon class="st23" points="334.45,138.02 319.78,123.35 319.87,123.25 334.54,137.92 					"/>
					
						<rect x="325.22" y="122.14" transform="matrix(0.7071 -0.7071 0.7071 0.7071 1.5757 268.8215)" class="st23" width="0.13" height="20.74"/>
				</g>
				<g>
					<polygon class="st23" points="335.31,136.72 318.62,124.4 318.7,124.29 335.39,136.61 					"/>
					
						<rect x="325.37" y="122.27" transform="matrix(0.5939 -0.8046 0.8046 0.5939 25.4577 315.7072)" class="st23" width="0.13" height="20.74"/>
				</g>
			</g>
			<path class="st20" d="M326.22,116.24c-8.4,0-15.21,6.81-15.21,15.21c0,8.4,6.81,15.21,15.21,15.21c8.4,0,15.21-6.81,15.21-15.21
				C341.44,123.05,334.62,116.24,326.22,116.24z M326.22,143.42c-6.61,0-11.97-5.36-11.97-11.97s5.36-11.97,11.97-11.97
				c6.61,0,11.97,5.36,11.97,11.97S332.83,143.42,326.22,143.42z"/>
			<g>
				<path d="M326.22,118.52c-7.14,0-12.93,5.79-12.93,12.93c0,7.14,5.79,12.93,12.93,12.93c7.14,0,12.93-5.79,12.93-12.93
					C339.15,124.31,333.36,118.52,326.22,118.52z M326.22,142.02c-5.75,0-10.41-4.66-10.41-10.41c0-5.75,4.66-10.41,10.41-10.41
					c5.75,0,10.41,4.66,10.41,10.41C336.63,137.36,331.97,142.02,326.22,142.02z"/>
			</g>
			<path class="st6" d="M329.06,131.57c0,1.57-1.27,2.84-2.84,2.84c-1.57,0-2.84-1.27-2.84-2.84c0-1.57,1.27-2.84,2.84-2.84
				C327.79,128.73,329.06,130,329.06,131.57z"/>
			<path class="st24" d="M327.54,131.57c0,0.73-0.59,1.32-1.32,1.32c-0.73,0-1.32-0.59-1.32-1.32c0-0.73,0.59-1.32,1.32-1.32
				C326.95,130.25,327.54,130.84,327.54,131.57z"/>
		</g>
		<g class="st1">
			<path d="M328.96,114.54l-3.45,16.82c0.04,0.1,0.1,0.2,0.17,0.28c0.01,0.01,0.01,0.01,0.02,0.02l13.78,0.3c0,0,0.96-1.3,0.96-3.43
				C340.44,125.99,337.16,117.42,328.96,114.54z M335.73,131.36h-7.69c-1.36-0.3-0.12-1.56-0.12-1.56s3.07-3.71,4.01-4.9
				c1.71-2.18,2.37-0.97,2.37-0.97s2.59,2.55,3.21,6.77C337.65,131.64,335.73,131.36,335.73,131.36z"/>
			<circle class="st8" cx="331.77" cy="121.3" r="1.58"/>
			<path class="st8" d="M329.81,124.83c0,0.23-0.19,0.42-0.42,0.42c-0.23,0-0.42-0.19-0.42-0.42c0-0.23,0.19-0.42,0.42-0.42
				C329.62,124.4,329.81,124.59,329.81,124.83z"/>
		</g>
		<path class="st25" d="M332.07,115.12c-13.34-4.47-19.71,6.97-19.71,6.97c-1.76,2.38,2.6,3.02,2.6,3.02s19.79,2.23,21.73,3.11
			c2.06,0.94,3.1,3.07,3.62,5.17c0.23,0.93,0.4,1.87,0.45,2.83c0.06,1.22-0.08,2.67,1.6,2.63c1.61-0.03,1.46-2.13,1.46-2.13
			C345.53,118.18,332.07,115.12,332.07,115.12z"/>
		<path class="st17" d="M332.07,115.12c-1.58-0.53-3.06-0.83-4.45-0.96c3.84,0.93,7.33,3.03,9.63,6.44
			c3.45,5.13,4.27,11.62,3.86,17.73c0.22,0.32,0.6,0.52,1.24,0.51c1.61-0.03,1.46-2.13,1.46-2.13
			C345.53,118.18,332.07,115.12,332.07,115.12z"/>
		<g class="st1">
			<g>
				<g>
					<rect x="403.46" y="121.2" class="st23" width="0.13" height="20.74"/>
					<rect x="406.11" y="121.2" class="st23" width="0.13" height="20.74"/>
				</g>
				<g>
					<rect x="394.48" y="130.18" class="st23" width="20.74" height="0.13"/>
					<rect x="394.48" y="132.83" class="st23" width="20.74" height="0.13"/>
				</g>
				<g>
					
						<rect x="393.16" y="131.38" transform="matrix(0.0937 -0.9956 0.9956 0.0937 234.8441 520.8814)" class="st23" width="20.74" height="0.13"/>
					
						<rect x="395.8" y="131.63" transform="matrix(0.0937 -0.9956 0.9956 0.0937 236.9955 523.7372)" class="st23" width="20.74" height="0.13"/>
				</g>
				<g>
					
						<rect x="404.91" y="119.88" transform="matrix(0.0935 -0.9956 0.9956 0.0935 237.4279 521.2713)" class="st23" width="0.13" height="20.74"/>
					
						<rect x="404.66" y="122.52" transform="matrix(0.0935 -0.9956 0.9956 0.0935 234.5748 523.418)" class="st23" width="0.13" height="20.74"/>
				</g>
				<g>
					
						<rect x="393.54" y="130.57" transform="matrix(0.7086 -0.7056 0.7056 0.7086 25.522 323.0681)" class="st23" width="20.74" height="0.13"/>
					
						<rect x="395.41" y="132.44" transform="matrix(0.7078 -0.7064 0.7064 0.7078 24.9701 325.382)" class="st23" width="20.74" height="0.13"/>
				</g>
				<g>
					
						<rect x="393.67" y="130.45" transform="matrix(0.7958 -0.6056 0.6056 0.7958 3.4727 271.33)" class="st23" width="20.75" height="0.13"/>
					
						<rect x="395.28" y="132.56" transform="matrix(0.7957 -0.6056 0.6056 0.7957 2.5351 272.7698)" class="st23" width="20.75" height="0.13"/>
				</g>
				<g>
					<polygon class="st23" points="413.07,138.02 398.4,123.35 398.5,123.25 413.17,137.92 					"/>
					
						<rect x="403.84" y="122.14" transform="matrix(0.7071 -0.7071 0.7071 0.7071 24.6051 324.4193)" class="st23" width="0.13" height="20.74"/>
				</g>
				<g>
					
						<rect x="405.57" y="120.13" transform="matrix(0.5939 -0.8046 0.8046 0.5939 59.7444 379.3635)" class="st23" width="0.13" height="20.74"/>
					
						<rect x="403.99" y="122.27" transform="matrix(0.5939 -0.8046 0.8046 0.5939 57.3921 378.9685)" class="st23" width="0.13" height="20.74"/>
				</g>
			</g>
			<path class="st20" d="M404.85,116.24c-8.4,0-15.21,6.81-15.21,15.21c0,8.4,6.81,15.21,15.21,15.21s15.21-6.81,15.21-15.21
				C420.06,123.05,413.25,116.24,404.85,116.24z M404.85,143.42c-6.61,0-11.97-5.36-11.97-11.97s5.36-11.97,11.97-11.97
				c6.61,0,11.97,5.36,11.97,11.97S411.46,143.42,404.85,143.42z"/>
			<g>
				<path d="M404.85,118.52c-7.14,0-12.93,5.79-12.93,12.93c0,7.14,5.79,12.93,12.93,12.93c7.14,0,12.93-5.79,12.93-12.93
					C417.78,124.31,411.99,118.52,404.85,118.52z M404.85,142.02c-5.75,0-10.41-4.66-10.41-10.41c0-5.75,4.66-10.41,10.41-10.41
					s10.41,4.66,10.41,10.41C415.26,137.36,410.6,142.02,404.85,142.02z"/>
			</g>
			<path class="st6" d="M407.69,131.57c0,1.57-1.27,2.84-2.84,2.84s-2.84-1.27-2.84-2.84c0-1.57,1.27-2.84,2.84-2.84
				S407.69,130,407.69,131.57z"/>
			<path class="st24" d="M406.17,131.57c0,0.73-0.59,1.32-1.32,1.32s-1.32-0.59-1.32-1.32c0-0.73,0.59-1.32,1.32-1.32
				S406.17,130.84,406.17,131.57z"/>
		</g>
		<path class="st26" d="M405.42,128.22c0,0.77-0.63,1.4-1.4,1.4h-29.91c-0.77,0-1.4-0.63-1.4-1.4l0,0c0-0.77,0.63-1.4,1.4-1.4h29.91
			C404.8,126.83,405.42,127.45,405.42,128.22L405.42,128.22z"/>
		<g class="st1">
			<g>
				<path class="st27" d="M371.92,126.66l29.97-1.53c3.76-0.28,7.03,2.54,7.31,6.29c0.28,3.76-2.54,7.03-6.29,7.31
					c-1.07,0.08-1.69,0.16-3.22-0.02l-25-0.86c0,0-7.43-0.3-7.05-8.39C367.65,129.47,368.04,126.24,371.92,126.66z"/>
				<g>
					<g>
						<path class="st28" d="M385.34,126.63l11.05-0.47c1.72-0.07,0.73,1.86,0.73,1.86s-1.18,2.59-2.46,5.33
							c-0.01,0.01-0.37,0.79-1.03,0.78l-6.17,0.05c0,0-0.94,0.07-1.37-0.96h0c-0.99-2.37-1.9-4.63-2.04-5.18
							C383.73,126.77,385.34,126.63,385.34,126.63z"/>
					</g>
					<path class="st28" d="M368.58,130.89c0,0.54,0.74,0.97,1.65,0.97l24.65,0.06c0.91,0,1.65-0.43,1.65-0.97l0,0
						c0-0.54-0.74-0.97-1.65-0.97l-24.65-0.06C369.32,129.92,368.58,130.35,368.58,130.89L368.58,130.89z"/>
				</g>
			</g>
			<path class="st29" d="M397.35,131.74c0.21,2.8,2.65,4.9,5.45,4.69c2.8-0.21,4.9-2.65,4.69-5.45c-0.21-2.8-2.65-4.9-5.45-4.69
				C399.24,126.5,397.14,128.94,397.35,131.74z"/>
		</g>
		<path class="st30" d="M337.41,85.85l-4.04,16.56c0,0-0.92,2.82,0,3.32l5.5,2.18l4.41-15.11c0,0,2.71-4.41,4.35-7.62
			c0,0,2.03-4.59,1.74-4.59c-3.11,0-8.08-4.72-8.08-4.72s-3.19,0.28-3.22,1.08C338.04,77.76,337.41,85.85,337.41,85.85z"/>
		<g class="st1">
			<g>
				<path class="st5" d="M344.05,81.63c-0.04,3.18-4.49,6.28-10.76,5.76c-1.2-0.1-2.19-2.58-2.19-5.76c0-3.18,1-5.58,2.19-5.76
					C338.58,75.04,344.09,78.97,344.05,81.63z"/>
				<path class="st9" d="M333.36,75.86c-0.02,0-0.05,0.01-0.07,0.01c-1.18,0.19-2.19,2.58-2.19,5.76c0,3.18,0.99,5.66,2.19,5.76
					c0.02,0,0.05,0,0.07,0V75.86z"/>
				<path class="st10" d="M332.54,76.3c-0.83,0.85-1.43,2.85-1.43,5.32c0,2.48,0.6,4.53,1.43,5.37V76.3z"/>
			</g>
			<path class="st2" d="M347.76,77.36c-2.63-0.85-3.68-0.92-4.69-1.29c-1.03-0.32-1.97-0.68-2.94-0.64c-1.06,0.04-2.55,0-3.01,0.59
				c0.08,3.01-0.06,10.33,0,11.43c5.2,1.42,7.3,0.88,8.47,0.56c0.85-0.35,2.26-1.65,3.34-4.01C348.94,84,350.71,78.32,347.76,77.36z
				"/>
			<path class="st31" d="M340.63,84c0,0.57-0.47,1.04-1.04,1.04h-2.86c-0.57,0-1.04-0.47-1.04-1.04l0,0c0-0.57,0.47-1.04,1.04-1.04
				h2.86C340.16,82.96,340.63,83.42,340.63,84L340.63,84z"/>
			<g>
				<path class="st9" d="M352.01,59.42c0.43,2.55,0.22,4.71-0.47,4.83c-0.69,0.12-1.61-1.85-2.04-4.4
					c-0.43-2.55-0.22-4.71,0.47-4.83C350.67,54.9,351.58,56.87,352.01,59.42z"/>
				<g>
					<path class="st32" d="M352.01,59.42c-0.43-2.55-1.35-4.52-2.04-4.4c-0.05,0.01-0.09,0.03-0.14,0.06
						c0.65,0.33,1.4,2.12,1.78,4.35c0.4,2.37,0.25,4.4-0.33,4.77c0.09,0.05,0.18,0.06,0.27,0.05
						C352.24,64.13,352.45,61.97,352.01,59.42z"/>
				</g>
			</g>
			<g>
				<path class="st33" d="M348.91,78.82c0.14,0.89-0.22,1.67-0.81,1.76c-0.58,0.09-1.16-0.56-1.3-1.44
					c-0.14-0.89,0.22-1.67,0.81-1.76C348.19,77.29,348.77,77.93,348.91,78.82z"/>
				<path class="st4" d="M352.68,78.21c0.13,0.75,0.01,1.4-0.26,1.45c0,0-4.03,0.69-4.03,0.69c-0.36,0.06-0.78-0.31-0.97-0.57
					c-0.26-0.36-0.42-0.88-0.29-1.32c0.1-0.33,0.42-0.77,0.79-0.84l4.03-0.69C352.22,76.89,352.55,77.46,352.68,78.21z"/>
				<path class="st33" d="M353.15,78.18c0.16,0.88-0.18,1.68-0.76,1.78c-0.58,0.1-1.18-0.53-1.33-1.41
					c-0.16-0.88,0.18-1.68,0.76-1.78C352.39,76.66,352.99,77.29,353.15,78.18z"/>
			</g>
			<g>
				<path class="st7" d="M336.61,81.25c0,0-3.65,0.79-2.98,3.19c0.35,1.25,4.25,2.41,5.54,1.7c0.55-0.3,0.64-3.42,0.13-4.53
					C339.05,81.03,337.64,81,336.61,81.25z"/>
				<g>
					<path class="st7" d="M336.61,81.25c0,0-3.65,0.79-2.98,3.19c0.35,1.25,4.25,2.41,5.54,1.7c0.55-0.3,0.64-3.42,0.13-4.53
						C339.05,81.03,337.64,81,336.61,81.25z"/>
					<path class="st6" d="M339.31,81.61c-0.19-0.41-0.96-0.54-1.76-0.5v5.22c0.66,0.06,1.25,0.01,1.63-0.19
						C339.72,85.83,339.81,82.71,339.31,81.61z"/>
					<path class="st7" d="M339.64,83.78c-0.01-0.84-0.11-1.7-0.33-2.18c-0.26-0.57-1.67-0.61-2.7-0.36c0,0-2.97,0.64-3.05,2.53
						H339.64z"/>
				</g>
			</g>
		</g>
		<path class="st34" d="M349.91,59.44l-5.18,13.24c0,0-1.39,2.52-0.52,4.08l1.05,2.22c0,0,0.22,0.21,0.45,0c0,0,0.08-0.16-0.03-0.33
			c-0.1-0.18-1.13-2.34-1.13-2.34s-0.28-1.06,0.25-2.47l5.23-13.51C350.04,60.33,350.39,59.52,349.91,59.44z"/>
		<path class="st17" d="M367.79,131.92c0,0-18.33,1.05-21.02-2.7l-4.36-6.66c-0.12,0.09-0.25,0.18-0.37,0.27
			c0.64,1.16,1.21,2.49,1.65,4c0,0,3.15,13.52,8.41,14.03h27.91c0,0,11.44,0.88,11.91-9.41L367.79,131.92z"/>
		<path class="st17" d="M346.03,133.91c1.44,3.36,3.5,6.7,6.07,6.94h27.91c0,0,9.51,0.73,11.54-6.94H346.03z"/>
		<path class="st18" d="M389.18,137.97c0.47-0.44,0.9-0.95,1.28-1.53h-43.2c0.3,0.54,0.62,1.06,0.96,1.53H389.18z"/>
		<path class="st18" d="M348.57,138.45c1.04,1.34,2.22,2.28,3.54,2.41h27.91c0,0,5.09,0.39,8.62-2.41H348.57z"/>
		<path class="st18" d="M390.74,135.96c0.33-0.6,0.61-1.28,0.81-2.04h-45.52c0.3,0.69,0.62,1.38,0.97,2.04H390.74z"/>
		<g class="st1">
			<path class="st35" d="M342.77,90.73l0.4,1.28C343.06,91.03,342.77,90.73,342.77,90.73z"/>
			<path class="st36" d="M381.73,139.89h-26.57c-4.23,0.14-7.73-3.17-9.77-12.11s-3.11-8.36-5.74-12.73
				c-2.63-4.37,0.62-10.13,2.53-16.57c0.86-2.89,1.07-4.74,1.03-5.91c-0.22-0.7-0.66-1.4-1.21-1.8c-0.25-0.18-0.52-0.34-0.79-0.5
				l-2.91-0.85c0,0-2.1,0.2-4.87,2.46c-5.26,4.29-9.48,12.59-9.85,19.67c0,0-0.47,2.43,1.94,2.02c2.42-0.4,15.88,1.04,18.44,14.28
				c0,0,2.88,12.49,8.15,13h27.91c0,0,6.47,0.2,9.88-4.09C387.16,139.66,381.73,139.89,381.73,139.89z"/>
		</g>
		<path class="st25" d="M429.54,130.12c-2.63-0.67-2.26-3.36-2.26-3.36c-0.18-11.39-7.97-17.84-7.97-17.84
			c-11.39-8.71-25.51-2.43-25.51-2.43c-3.56,1.48-2.28-4.96-2.28-4.96s-2.29,0-5.24,0c-0.13,0.84-0.25,1.67-0.38,2.51
			c-0.05,0.36-0.11,0.72-0.16,1.08l-13.01-0.53v0.6h-4.15c0,0-0.54,3.49,0.87,4.16c1.41,0.67,7.26,2.08,7.46,6.91
			c0.19,4.83-11.32,4.11-11,16.38c0,0,62.62-0.9,63.9-1.4C431.73,130.51,429.54,130.12,429.54,130.12z"/>
		<g class="st1">
			<path class="st13" d="M420.42,105.62c-0.18,0-0.33-0.01-0.41-0.02h-16.1c-0.44,0-0.81-0.36-0.81-0.81c0-0.44,0.36-0.81,0.81-0.81
				h16.15c0.04,0,0.08,0,0.11,0.01c0.19,0.03,0.84,0.04,1.18-0.22c0.09-0.07,0.21-0.19,0.24-0.48c0.19-1.63,0-5.95,0-6
				c-0.02-0.44,0.32-0.82,0.77-0.84c0.44-0.02,0.82,0.32,0.84,0.77c0.01,0.18,0.2,4.5,0,6.26c-0.08,0.66-0.37,1.2-0.86,1.57
				C421.71,105.53,420.92,105.62,420.42,105.62z"/>
			<path class="st13" d="M408.7,105.19c-0.44,0-0.81-0.36-0.81-0.81v-5.23c0-0.44,0.36-0.81,0.81-0.81c0.44,0,0.81,0.36,0.81,0.81
				v5.23C409.51,104.83,409.15,105.19,408.7,105.19z"/>
		</g>
		<path class="st37" d="M418.14,108.75c0,0,5.86,4.97,7.67,11.76c0,0,0.45,1.51,0.81,5.13c0.35,3.62,0.6,4.64,2.62,4.83
			c0,0-2.62,0.51-2.95-2.01C425.89,125.55,425.66,116.51,418.14,108.75z"/>
		<g class="st1">
			<path class="st2" d="M429.54,130.12c-2.63-0.67-2.26-3.36-2.26-3.36c-0.18-11.39-7.97-17.84-7.97-17.84
				c-11.39-8.71-25.51-2.43-25.51-2.43c-3.56,1.48-2.28-4.96-2.28-4.96s-2.29,0-5.24,0c-0.13,0.84-0.25,1.67-0.38,2.51
				c-0.05,0.36-0.11,0.72-0.16,1.08l-13.01-0.53v0.6h-4.15c0,0-0.54,3.49,0.87,4.16c1.41,0.67,7.26,2.08,7.46,6.91
				c0.19,4.83-11.32,4.11-11,16.38c0,0,6.81-0.1,15.98-0.25c0.88-7.39,4.57-19.67,19.23-21.57c15.77-2.04,22.34,9.68,24.72,20.65
				c2.34-0.08,3.79-0.16,3.97-0.23C431.73,130.51,429.54,130.12,429.54,130.12z"/>
			<path class="st36" d="M401.12,110.83c-14.67,1.9-18.35,14.18-19.23,21.57c2.84-0.05,5.9-0.1,9.05-0.15
				c-0.04-3.4,0.6-17.79,14.56-19.6c12.8-1.66,17.48,9.8,18.86,18.88c0.52-0.02,1.02-0.03,1.47-0.05
				C423.46,120.51,416.89,108.78,401.12,110.83z"/>
			<path class="st2" d="M405.5,112.65c-13.96,1.81-14.61,16.2-14.56,19.6c12.29-0.21,26.02-0.48,33.43-0.71
				C422.99,122.44,418.3,110.99,405.5,112.65z"/>
		</g>
		<g class="st1">
			<path class="st31" d="M413.64,109.79c0,0.57-0.47,1.04-1.04,1.04h-2.86c-0.57,0-1.04-0.47-1.04-1.04l0,0
				c0-0.57,0.47-1.04,1.04-1.04h2.86C413.17,108.75,413.64,109.21,413.64,109.79L413.64,109.79z"/>
			<g>
				<path class="st7" d="M413.63,107.31c0,0,3.65,0.79,2.98,3.19c-0.35,1.25-4.25,2.41-5.54,1.7c-0.55-0.3-0.64-3.43-0.13-4.53
					C411.19,107.09,412.6,107.05,413.63,107.31z"/>
				<path class="st6" d="M410.93,107.66c0.19-0.41,0.96-0.54,1.76-0.5v5.22c-0.66,0.06-1.25,0.01-1.63-0.19
					C410.51,111.89,410.42,108.77,410.93,107.66z"/>
				<path class="st7" d="M416.59,109.35c-0.51-1.52-2.96-2.05-2.96-2.05c-1.03-0.25-2.44-0.22-2.7,0.36
					c-0.18,0.39-0.28,1.02-0.32,1.69H416.59z"/>
			</g>
		</g>
		<g class="st1">
			<path class="st38" d="M406.33,108.49c0,0,2.61-0.13,2.89-3.86l0,0c-8.25-1.33-15.43,1.87-15.43,1.87
				c-3.56,1.48-2.28-4.96-2.28-4.96s-2.29,0-5.24,0c-0.13,0.84-0.25,1.67-0.38,2.51c-0.05,0.36-0.11,0.72-0.16,1.08l-13.01-0.53v0.6
				h-4.15c0,0-0.46,3.01,0.6,3.98c0.94,0.31,2.11,0.55,3.55,0.62C377.77,110.03,406.33,108.49,406.33,108.49z"/>
		</g>
		<g class="st1">
			<g>
				<path class="st39" d="M404.26,96.85c-0.15,0.01-0.29,0.02-0.41,0.02c-1.79,0.13-3.55,0.51-5.29,0.94
					c-4.08,1.02-8.17,2.06-12.38,2.45c-3.61,0.33-7.12-0.3-10.72-0.22c-1.58,0.04-3.32,0.17-4.74,0.94
					c-0.48,0.27-0.88,0.59-1.2,0.96c0.01,0.03,0.05,0.07,0.02,0.1c-4.66,5.06,4.53,4.84,6.63,5.13h25.52c0,0,3.78,0.43,4.37-3.27
					c0.6-3.7,0-5.41,0-5.41S406.25,97.25,404.26,96.85z"/>
			</g>
			<g>
				<path class="st40" d="M399.55,98.38c-0.11,0-0.22,0.01-0.32,0.02c-1.39,0.09-2.75,0.36-4.1,0.67c-3.17,0.72-6.34,1.46-9.6,1.73
					c-2.8,0.23-5.52-0.21-8.31-0.15c-1.23,0.03-2.58,0.12-3.68,0.66c-0.37,0.19-0.68,0.41-0.93,0.67c0.01,0.02,0.04,0.05,0.02,0.07
					c-3.61,3.57,3.51,3.41,5.14,3.61h19.79c0,0,2.93,0.3,3.39-2.31c0.46-2.61,0-3.82,0-3.82S401.09,98.66,399.55,98.38z"/>
			</g>
		</g>
		<g class="st1">
			<path class="st8" d="M324.83,109.81c1.81-0.59,3.08-11.7,12.27-17.92c0,0,2.31-2.24-0.63-1.9c-0.82,0.36-1.88,0.95-3.05,1.9
				c-4.66,3.8-8.5,10.75-9.58,17.2C324.02,109.65,324.31,109.98,324.83,109.81z"/>
		</g>
		<path class="st22" d="M312.54,122.88c0,0,4.61-9.44,16.04-8.33C328.58,114.54,317.98,115.27,312.54,122.88z"/>
		<g class="st1">
			<path class="st41" d="M381.73,139.89h-26.57c-4.23,0.14-7.73-3.17-9.77-12.11s-3.11-8.36-5.74-12.73
				c-2.63-4.37,0.62-10.13,2.53-16.57c0.86-2.89,1.07-4.74,1.03-5.91c-0.22-0.7-0.66-1.4-1.21-1.8c-0.25-0.18-0.52-0.34-0.79-0.5
				l-2.91-0.85c0,0-0.17,0.02-0.49,0.09c1.04,0.09,2.21,0.62,2.61,2.37c0,0,0.39,1.61-1.27,6.09c-1.66,4.48-3.51,8.06-2.55,12.61
				c0.95,4.55,3.76,5.59,5.45,9.12c1.69,3.53,2.32,6.11,3.39,10.21c1.07,4.1,3.05,9.01,6.44,9.97c3.39,0.97,29.56,0.42,29.56,0.42
				s6.07-0.53,8.47-3.54C387.16,139.66,381.73,139.89,381.73,139.89z"/>
		</g>
		<g class="st1">
			<path class="st35" d="M338.3,89.43l2.12,0.62C339.46,89.37,338.3,89.43,338.3,89.43z"/>
			<path class="st2" d="M341.99,90.77c-0.25-0.18-0.52-0.34-0.79-0.5l-0.79-0.23c0.91,0.64,1.63,1.95,0.98,4.6
				c-1.34,5.45-7.4,14.63-1.75,20.4c-2.63-4.37,0.62-10.13,2.53-16.57c0.86-2.89,1.07-4.74,1.03-5.91
				C342.98,91.87,342.54,91.17,341.99,90.77z"/>
		</g>
		<path class="st22" d="M382.58,131.29c0,0,2.65-18.72,18.58-20.08C401.15,111.21,387.66,112.39,382.58,131.29z"/>
		<path class="st22" d="M366.6,132.63c0,0-1.28-9.41,9.69-12.92C376.29,119.71,366.67,122.79,366.6,132.63z"/>
	</g>
	<g>
		<path class="st42" d="M390.53,199.41c0,1.38-1.28,2.5-2.85,2.5h-47.31c-1.58,0-2.85-1.12-2.85-2.5V177.2c0-1.38,1.28-2.5,2.85-2.5
			h47.31c1.58,0,2.85,1.12,2.85,2.5V199.41z"/>
		<rect x="337.52" y="180.95" class="st43" width="53.01" height="14.82"/>
		<rect x="337.52" y="196.25" class="st43" width="53.01" height="1.64"/>
		<path class="st43" d="M390.49,199.79c0.02-0.13,0.04-0.25,0.04-0.39v-1.05h-53.01v1.05c0,0.13,0.02,0.26,0.04,0.39H390.49z"/>
		<path class="st43" d="M337.7,200.27c0.4,0.95,1.45,1.64,2.67,1.64h47.31c1.23,0,2.27-0.68,2.67-1.64H337.7z"/>
		<rect x="337.52" y="179.13" class="st43" width="53.01" height="1.33"/>
		<rect x="337.52" y="177.52" class="st43" width="53.01" height="1.13"/>
		<path class="st43" d="M390.52,177.05c-0.09-1.31-1.33-2.35-2.84-2.35h-47.31c-1.52,0-2.75,1.04-2.84,2.35H390.52z"/>
		<path class="st42" d="M390.53,193.78c0,0.68-1.28,1.23-2.85,1.23h-47.31c-1.58,0-2.85-0.55-2.85-1.23v-10.95
			c0-0.68,1.28-1.23,2.85-1.23h47.31c1.58,0,2.85,0.55,2.85,1.23V193.78z"/>
		<g>
			<path d="M328.07,188.48c0,1.58-1.28,2.85-2.85,2.85h-13.53c-1.58,0-2.85-1.28-2.85-2.85v-0.35c0-1.58,1.28-2.85,2.85-2.85h13.53
				c1.58,0,2.85,1.28,2.85,2.85V188.48z"/>
			<path class="st44" d="M335.5,180.84h-9.97c-10.54,0.11-14.01,3.76-14.01,5.02v4.84c0,1.26,3.75,5.18,12.5,4.95l11.48,0.02V180.84
				z"/>
			<path class="st45" d="M344.6,170.66c0,0-19.35,3.87-22.76,14.26c0,0-5.49,19.77,22.76,21.04V170.66z"/>
			<path class="st46" d="M344.6,170.66c0,0-10.77,3.87-12.67,14.26c0,0-3.06,19.77,12.67,21.04V170.66z"/>
			<g>
				<path class="st44" d="M341.11,178.38c0,0-4.93,1.74-5.92,6.3c-0.99,4.56,0.28,11.84,6.22,14.07L341.11,178.38z"/>
				<g>
					<path class="st44" d="M337.05,179.91c0,0.57,0.47,1.04,1.04,1.04h2.86c0.57,0,1.04-0.47,1.04-1.04l0,0
						c0-0.57-0.47-1.04-1.04-1.04h-2.86C337.51,178.87,337.05,179.34,337.05,179.91L337.05,179.91z"/>
					<g>
						<path class="st7" d="M337.06,177.43c0,0-3.65,0.79-2.98,3.19c0.35,1.25,4.25,2.41,5.54,1.7c0.55-0.3,0.64-3.42,0.13-4.53
							C339.5,177.22,338.09,177.18,337.06,177.43z"/>
						<path class="st6" d="M339.76,177.79c-0.19-0.41-0.96-0.54-1.76-0.5v5.22c0.66,0.06,1.25,0.01,1.63-0.19
							C340.18,182.02,340.27,178.9,339.76,177.79z"/>
						<path class="st7" d="M334.1,179.48c0.51-1.52,2.96-2.05,2.96-2.05c1.03-0.25,2.44-0.22,2.7,0.36
							c0.18,0.39,0.28,1.02,0.32,1.69H334.1z"/>
					</g>
				</g>
				<g>
					<path class="st44" d="M337.05,196.69c0,0.57,0.47,1.04,1.04,1.04h2.86c0.57,0,1.04-0.47,1.04-1.04l0,0
						c0-0.57-0.47-1.04-1.04-1.04h-2.86C337.51,195.65,337.05,196.12,337.05,196.69L337.05,196.69z"/>
					<g>
						<path class="st7" d="M337.06,194.21c0,0-3.65,0.79-2.98,3.19c0.35,1.25,4.25,2.41,5.54,1.7c0.55-0.3,0.64-3.42,0.13-4.53
							C339.5,194,338.09,193.96,337.06,194.21z"/>
						<path class="st6" d="M339.76,194.57c-0.19-0.41-0.96-0.54-1.76-0.5v5.22c0.66,0.06,1.25,0.01,1.63-0.19
							C340.18,198.8,340.27,195.68,339.76,194.57z"/>
						<path class="st7" d="M334.1,196.26c0.51-1.52,2.96-2.05,2.96-2.05c1.03-0.25,2.44-0.21,2.7,0.36
							c0.18,0.39,0.28,1.02,0.32,1.69H334.1z"/>
					</g>
				</g>
				<path class="st44" d="M340.46,188.7c0,1.28-0.95,3.22-2.46,3.62l-6.11,0.73c-1.35,0-2.45-1.04-2.45-2.32v-4.86
					c0-1.28,1.1-2.32,2.45-2.32l6.11,0.72c1.35,0,2.46,2.21,2.46,3.5V188.7z"/>
				<path class="st10" d="M332.66,183.64l-0.78-0.09c-1.35,0-2.45,1.04-2.45,2.32v4.86c0,1.28,1.1,2.32,2.45,2.32l0.78-0.09V183.64z
					"/>
				<path class="st9" d="M332.66,183.64l-0.78-0.09c-0.07,0-0.13,0-0.2,0.01v9.49c0.06,0,0.13,0.01,0.2,0.01l0.78-0.09V183.64z"/>
				<g>
					<g>
						<path class="st47" d="M347.73,188.02l-9.17-0.39c0,0-0.12,3.09,1.06,6.88c0.91,2.94,2.84,6.15,4.65,9.62l1.34-1.21
							c0,0-1.59-5.8-0.49-7.01S348.11,190.34,347.73,188.02z"/>
						<g>
							<path class="st9" d="M339.58,209.71c-0.3-2.33-1.11-4.16-1.81-4.08c-0.7,0.07-1.02,2.02-0.72,4.35
								c0.3,2.33,1.11,4.16,1.81,4.08C339.56,213.99,339.88,212.05,339.58,209.71z"/>
							<g>
								<path class="st32" d="M339.58,209.71c0.3,2.33-0.02,4.28-0.72,4.35c-0.05,0.01-0.1,0-0.15-0.01
									c0.53-0.45,0.75-2.2,0.48-4.24c-0.28-2.17-1-3.9-1.66-4.07c0.07-0.06,0.15-0.1,0.24-0.11
									C338.47,205.56,339.28,207.38,339.58,209.71z"/>
							</g>
						</g>
						<path class="st48" d="M337.03,209.95c-0.17,0-0.3-0.06-0.39-0.17c-0.19-0.22-0.15-0.59-0.12-0.77c0-0.03,0.01-0.05,0.01-0.06
							c0-0.03,0.04-0.34,0.18-1.54c0.25-2.17,0.73-6.2,0.73-6.66c0-0.73,0.49-0.82,0.51-0.83l6.9-1.73l0.05,0.2l-6.91,1.73
							c-0.02,0-0.35,0.07-0.35,0.63c0,0.48-0.46,4.36-0.73,6.69c-0.1,0.82-0.17,1.47-0.18,1.52c0,0.01,0,0.04-0.01,0.08
							c-0.02,0.14-0.06,0.46,0.08,0.62c0.05,0.06,0.13,0.09,0.24,0.1L337.03,209.95z"/>
						<g>
							<path class="st4" d="M347.91,210.39c0.08,0.27-0.06,0.54-0.31,0.61l-1.17,0.33c-0.25,0.07-0.51-0.09-0.59-0.36l-2.15-7.58
								c-0.08-0.27,0.06-0.54,0.31-0.61l1.17-0.33c0.25-0.07,0.51,0.09,0.59,0.36L347.91,210.39z"/>
							<path class="st33" d="M346.06,202.35c0.04,0.13,0,0.26-0.09,0.29l-2.61,0.76c-0.09,0.03-0.19-0.06-0.23-0.2l0,0
								c-0.04-0.13,0-0.26,0.09-0.29l2.61-0.76C345.92,202.12,346.02,202.21,346.06,202.35L346.06,202.35z"/>
						</g>
					</g>
					<g>
						<path class="st47" d="M347.73,188.3l-9.17-0.67c0,0-0.19-2.28,0.85-5.4c0.91-2.73,2.92-6.05,4.85-9.77l1.34,1.21
							c0,0-1.59,5.8-0.49,7.01S348.11,185.99,347.73,188.3z"/>
						<g>
							<path class="st9" d="M339.57,166.89c-0.3,2.33-1.11,4.16-1.81,4.08c-0.7-0.07-1.02-2.02-0.72-4.35
								c0.3-2.33,1.11-4.16,1.81-4.08C339.55,162.61,339.87,164.56,339.57,166.89z"/>
							<g>
								<path class="st32" d="M339.57,166.89c0.3-2.33-0.02-4.28-0.72-4.35c-0.05-0.01-0.1,0-0.15,0.01
									c0.53,0.45,0.75,2.2,0.48,4.24c-0.28,2.17-1,3.9-1.66,4.07c0.07,0.06,0.15,0.1,0.24,0.11
									C338.46,171.05,339.27,169.22,339.57,166.89z"/>
							</g>
						</g>
						<path class="st48" d="M344.82,178.97l-6.92-2.29l0,0c-0.01,0-0.49-0.09-0.49-0.82c0-0.46-0.47-4.5-0.73-6.67
							c-0.14-1.2-0.18-1.51-0.18-1.54c0-0.01,0-0.03-0.01-0.06c-0.02-0.18-0.07-0.55,0.12-0.77c0.09-0.11,0.22-0.16,0.39-0.17l0,0.2
							c-0.11,0-0.19,0.03-0.24,0.1c-0.13,0.16-0.09,0.48-0.08,0.62c0,0.04,0.01,0.07,0.01,0.08c0,0.04,0.08,0.69,0.18,1.51
							c0.27,2.32,0.73,6.21,0.73,6.69c0,0.55,0.33,0.62,0.34,0.63l6.93,2.29L344.82,178.97z"/>
						<g>
							<path class="st4" d="M347.91,166.22c0.08-0.27-0.06-0.54-0.31-0.61l-1.17-0.33c-0.25-0.07-0.51,0.09-0.59,0.36l-2.15,7.58
								c-0.08,0.27,0.06,0.54,0.31,0.61l1.17,0.33c0.25,0.07,0.51-0.09,0.59-0.36L347.91,166.22z"/>
							<path class="st33" d="M346.06,174.26c0.04-0.13,0-0.26-0.09-0.29l-2.61-0.76c-0.09-0.03-0.19,0.06-0.23,0.2l0,0
								c-0.04,0.13,0,0.26,0.09,0.29l2.61,0.76C345.92,174.48,346.02,174.4,346.06,174.26L346.06,174.26z"/>
						</g>
					</g>
				</g>
				<path class="st49" d="M347.47,187.63c0,2.4-1.29,4.35-2.88,4.35c-1.59,0-2.88-1.95-2.88-4.35c0-2.4,1.29-4.35,2.88-4.35
					C346.19,183.28,347.47,185.23,347.47,187.63z"/>
				<path class="st49" d="M347.47,187.63c0,2.4-1.29,4.35-2.88,4.35c-1.59,0-2.88-1.95-2.88-4.35c0-2.4,1.29-4.35,2.88-4.35
					C346.19,183.28,347.47,185.23,347.47,187.63z"/>
				<path class="st50" d="M347.47,187.63c0,1.82-0.98,3.29-2.18,3.29c-1.2,0-2.18-1.47-2.18-3.29c0-1.82,0.98-3.29,2.18-3.29
					C346.5,184.34,347.47,185.81,347.47,187.63z"/>
			</g>
			<path class="st50" d="M321.98,189.25c0,0,1.15-10.1,13.52-15.08C335.5,174.17,322.31,177.91,321.98,189.25z"/>
			<path class="st50" d="M312.11,187.63c0,0,1.28-4.67,10.47-5.92c0,0-5.77,0.36-8.86,2.31
				C313.72,184.02,311.98,185.54,312.11,187.63z"/>
		</g>
		<g>
			<path class="st27" d="M377.78,180.18c0,1.33-0.79,2.41-1.77,2.41l0,0c-0.98,0-1.77-1.08-1.77-2.41v-5.53
				c0-1.33,0.79-2.41,1.77-2.41l0,0c0.98,0,1.77,1.08,1.77,2.41V180.18z"/>
			<path class="st27" d="M377.78,202.86c0,1.33-0.79,2.41-1.77,2.41l0,0c-0.98,0-1.77-1.08-1.77-2.41v-5.53
				c0-1.33,0.79-2.41,1.77-2.41l0,0c0.98,0,1.77,1.08,1.77,2.41V202.86z"/>
			<path class="st45" d="M428.89,195.03c0,1.58-2.18,2.85-4.88,2.85h-55.03c-2.69,0-4.88-1.28-4.88-2.85v-12.9
				c0-1.58,2.18-2.85,4.88-2.85h55.03c2.69,0,4.88,1.28,4.88,2.85V195.03z"/>
			<path class="st45" d="M426.46,196.87c0,0-6.36,7.74-18.7,8.23c-12.34,0.48-23.51-0.17-23.51-0.17s-16.09-2.64-20.15-13.9
				L426.46,196.87z"/>
			<path class="st45" d="M426.46,179.74c0,0-6.36-7.74-18.7-8.23c-12.34-0.48-23.51,0.17-23.51,0.17s-16.09,2.64-20.15,13.9
				L426.46,179.74z"/>
			<path class="st44" d="M420.25,195.71c0,0-5.1,6.2-14.98,6.59c-9.88,0.39-18.82-0.14-18.82-0.14s-12.88-2.11-16.14-11.14
				L420.25,195.71z"/>
			<path class="st44" d="M419.05,181.13c0,0-4.85-5.9-14.26-6.27c-9.41-0.37-17.92,0.13-17.92,0.13s-12.26,2.01-15.36,10.6
				L419.05,181.13z"/>
			<g>
				<path class="st47" d="M403.14,196.33c0,0.38-0.58,0.7-1.3,0.7l0,0c-0.72,0-1.3-0.31-1.3-0.7v-14.98c0-0.38,0.58-0.7,1.3-0.7l0,0
					c0.72,0,1.3,0.31,1.3,0.7V196.33z"/>
				<g>
					<path class="st31" d="M408.45,185.98c0,0.22-0.31,0.4-0.7,0.4l0,0c-0.38,0-0.7-0.18-0.7-0.4v-5.55c0-0.22,0.31-0.4,0.7-0.4l0,0
						c0.38,0,0.7,0.18,0.7,0.4V185.98z"/>
					<g>
						<path class="st31" d="M411.94,180.66c0,0.57-0.47,1.04-1.04,1.04h-2.86c-0.57,0-1.04-0.47-1.04-1.04l0,0
							c0-0.57,0.47-1.04,1.04-1.04h2.86C411.47,179.62,411.94,180.08,411.94,180.66L411.94,180.66z"/>
						<g>
							<path class="st7" d="M411.92,178.18c0,0,3.65,0.79,2.98,3.19c-0.35,1.25-4.25,2.41-5.54,1.7c-0.55-0.3-0.64-3.43-0.13-4.53
								C409.49,177.96,410.89,177.93,411.92,178.18z"/>
							<path class="st6" d="M409.22,178.54c0.19-0.41,0.96-0.54,1.76-0.5v5.22c-0.66,0.06-1.25,0.01-1.63-0.19
								C408.81,182.76,408.72,179.64,409.22,178.54z"/>
							<path class="st7" d="M414.89,180.23c-0.51-1.52-2.96-2.05-2.96-2.05c-1.03-0.25-2.44-0.22-2.7,0.36
								c-0.18,0.39-0.28,1.02-0.32,1.69H414.89z"/>
						</g>
					</g>
				</g>
				<g>
					<path class="st31" d="M408.45,190.98c0-0.22-0.31-0.4-0.7-0.4l0,0c-0.38,0-0.7,0.18-0.7,0.4v5.55c0,0.22,0.31,0.4,0.7,0.4l0,0
						c0.38,0,0.7-0.18,0.7-0.4V190.98z"/>
					<g>
						<path class="st31" d="M411.94,196.31c0-0.57-0.47-1.04-1.04-1.04h-2.86c-0.57,0-1.04,0.47-1.04,1.04l0,0
							c0,0.57,0.47,1.04,1.04,1.04h2.86C411.47,197.35,411.94,196.88,411.94,196.31L411.94,196.31z"/>
						<g>
							<path class="st7" d="M411.92,198.78c0,0,3.65-0.79,2.98-3.19c-0.35-1.25-4.25-2.41-5.54-1.7c-0.55,0.3-0.64,3.43-0.13,4.53
								C409.49,199,410.89,199.04,411.92,198.78z"/>
							<path class="st6" d="M409.22,198.43c0.19,0.41,0.96,0.54,1.76,0.5v-5.22c-0.66-0.06-1.25-0.01-1.63,0.19
								C408.81,194.2,408.72,197.32,409.22,198.43z"/>
							<path class="st7" d="M414.89,196.74c-0.51,1.52-2.96,2.05-2.96,2.05c-1.03,0.25-2.44,0.22-2.7-0.36
								c-0.18-0.39-0.28-1.02-0.32-1.69H414.89z"/>
						</g>
					</g>
				</g>
				<path class="st47" d="M404.51,181.16c0,1.3-1.05,2.35-2.35,2.35s-2.35-1.05-2.35-2.35c0-1.3,1.05-2.35,2.35-2.35
					S404.51,179.86,404.51,181.16z"/>
				<path class="st47" d="M404.51,195.44c0,1.3-1.05,2.35-2.35,2.35s-2.35-1.05-2.35-2.35c0-1.3,1.05-2.35,2.35-2.35
					S404.51,194.14,404.51,195.44z"/>
				<g>
					<rect x="415.91" y="184.44" class="st7" width="7.5" height="7.66"/>
					<rect x="415.91" y="184.44" class="st6" width="2.99" height="7.66"/>
					<rect x="415.91" y="184.44" class="st7" width="7.5" height="1.95"/>
				</g>
				<g>
					<path class="st13" d="M419.16,181.58h-13.88c-1.13,0-2.05,1.28-2.05,2.85v7.65c0,1.58,0.92,2.85,2.05,2.85h13.88
						c1.13,0,2.05-1.28,2.05-2.85v-7.65C421.21,182.86,420.29,181.58,419.16,181.58z M419.65,191.5c0,1.35-0.72,2.45-1.61,2.45
						h-10.9c-0.89,0-1.61-1.1-1.61-2.45v-6.57c0-1.35,0.72-2.45,1.61-2.45h10.9c0.89,0,1.61,1.1,1.61,2.45V191.5z"/>
					<path class="st13" d="M410.88,194.34c0,0.33-0.27,0.6-0.6,0.6l0,0c-0.33,0-0.6-0.27-0.6-0.6v-11.89c0-0.33,0.27-0.6,0.6-0.6
						l0,0c0.33,0,0.6,0.27,0.6,0.6V194.34z"/>
					<path class="st13" d="M416.71,194.34c0,0.33-0.27,0.6-0.6,0.6l0,0c-0.33,0-0.6-0.27-0.6-0.6v-11.89c0-0.33,0.27-0.6,0.6-0.6
						l0,0c0.33,0,0.6,0.27,0.6,0.6V194.34z"/>
				</g>
			</g>
			<path class="st39" d="M387.67,177.66c-6.67,3.75-8.21,3.84-15.3,5.25c-7.09,1.41-5.57,5.55-5.57,5.55l0.26,0.02l-0.26,0.02
				c0,0-1.52,4.13,5.57,5.55c7.09,1.41,8.63,1.5,15.3,5.25c5.46,3.07,15.49,3.88,16.58-7.18v-0.43v-6.44v-0.43
				C403.16,173.78,393.13,174.59,387.67,177.66z"/>
			<path class="st40" d="M385.79,179.24c-5.64,3.17-6.94,3.25-12.94,4.44c-6,1.19-4.71,4.69-4.71,4.69l0.22,0.02l-0.22,0.02
				c0,0-1.29,3.5,4.71,4.69c6,1.19,7.29,1.27,12.94,4.44c4.62,2.6,13.1,3.28,14.01-6.07v-0.36v-5.45v-0.36
				C398.88,175.97,390.4,176.65,385.79,179.24z"/>
			<path class="st50" d="M370.32,178.81c0,0,7.42-5.67,17.82-6.57C388.14,172.24,377.05,172.18,370.32,178.81z"/>
			<path class="st50" d="M377.7,202.43c0,0,7.62,2.43,25.4,2.64C403.09,205.07,383.1,205.3,377.7,202.43z"/>
		</g>
	</g>
</g>
</svg>
